<svg xmlns="http://www.w3.org/2000/svg" width="66.441" height="39.985" viewBox="0 0 66.441 39.985">
  <g id="Livello_11" transform="translate(-180.234 -119.357) rotate(7)">
    <g id="Group_1410" data-name="Group 1410" transform="translate(198.027 96.672)" opacity="0.25">
      <g id="Group_1409" data-name="Group 1409" transform="translate(0 0)">
        <path id="Path_168" data-name="Path 168" d="M73.894,147.11a3.679,3.679,0,0,1-3.066,4.136l-52.786,6.512a3.546,3.546,0,0,1-3.867-3.277L12.306,137.2a3.68,3.68,0,0,1,3.065-4.134l52.79-6.513a3.548,3.548,0,0,1,3.865,3.276Z" transform="translate(-12.282 -126.532)" fill="none" stroke="#272c31" stroke-miterlimit="10" stroke-width="1.3"/>
        <path id="Path_169" data-name="Path 169" d="M183.5,175.814l-.778.1-2.273-21.022.779-.1Z" transform="translate(-152.579 -149.791)"/>
        <path id="Path_170" data-name="Path 170" d="M223.754,244.105l.09.831-26.563,3.276-.093-.832Z" transform="translate(-166.548 -223.299)"/>
        <path id="Subtraction_1" data-name="Subtraction 1" d="M1.5,6.395A1.17,1.17,0,0,1,.365,5.32L.007,1.992a1.2,1.2,0,0,1,1-1.342L6.179.008A1.081,1.081,0,0,1,6.307,0,1.169,1.169,0,0,1,7.439,1.075L7.8,4.4a1.2,1.2,0,0,1-1,1.346L1.63,6.386A1.089,1.089,0,0,1,1.5,6.395ZM3.1,3.926h0l.375.615a.583.583,0,0,0,.54.343.9.9,0,0,0,.117-.008l.538-.065a.2.2,0,0,0,.181-.242.193.193,0,0,0-.2-.194H4.625l-.493.063a1.063,1.063,0,0,1-.112.008c-.1,0-.137-.031-.212-.16l-.253-.419L4.137,3.8a.257.257,0,0,0,.184-.079.22.22,0,0,0,.035-.17.178.178,0,0,0-.2-.189.528.528,0,0,0-.063,0l-.786.1a.645.645,0,0,1-.045-.355l.959-.117c.17-.023.238-.1.22-.247-.013-.133-.072-.189-.2-.189a.559.559,0,0,0-.068,0l-.762.091.17-.5c.061-.173.088-.2.259-.216l.509-.061a.207.207,0,0,0,.184-.241.2.2,0,0,0-.2-.195H4.309l-.526.065A.627.627,0,0,0,3.2,2l-.239.7-.117.015c-.163.018-.236.1-.221.247a.184.184,0,0,0,.2.189h.024a.883.883,0,0,0,.042.362.194.194,0,0,0-.181.236.186.186,0,0,0,.206.194.5.5,0,0,0,.057,0L3.1,3.926Z" transform="translate(2.726 8.748)"/>
        <path id="Subtraction_2" data-name="Subtraction 2" d="M1.5,6.395A1.165,1.165,0,0,1,.369,5.319L.008,1.993a1.2,1.2,0,0,1,1-1.346L6.179.008A1.08,1.08,0,0,1,6.307,0,1.167,1.167,0,0,1,7.438,1.075L7.795,4.4a1.19,1.19,0,0,1-1,1.341l-5.169.641A1.092,1.092,0,0,1,1.5,6.395ZM3.308,3.772h0l.376.615a.6.6,0,0,0,.545.345.932.932,0,0,0,.109-.007l.544-.069a.2.2,0,0,0,.137-.071.217.217,0,0,0,.041-.169.193.193,0,0,0-.2-.195H4.837l-.5.062a.9.9,0,0,1-.112.01c-.09,0-.134-.034-.213-.164l-.247-.416.581-.071c.167-.023.235-.1.22-.247S4.488,3.2,4.361,3.2a.535.535,0,0,0-.06,0l-.786.1a.634.634,0,0,1-.037-.354l.954-.118a.285.285,0,0,0,.179-.074.2.2,0,0,0,.042-.17A.186.186,0,0,0,4.444,2.4a.541.541,0,0,0-.059,0l-.763.1L3.793,2c.059-.175.083-.2.259-.215l.51-.066a.2.2,0,0,0,.179-.244.185.185,0,0,0-.2-.19H4.515l-.522.065a.627.627,0,0,0-.581.492l-.238.706-.12.018a.258.258,0,0,0-.181.08.212.212,0,0,0-.035.162A.185.185,0,0,0,3.05,3h.013a.837.837,0,0,0,.043.358.2.2,0,0,0-.183.239.182.182,0,0,0,.2.19.5.5,0,0,0,.062,0l.119-.015Z" transform="translate(31.138 5.243)"/>
        <path id="Path_173" data-name="Path 173" d="M40.392,218.321l-7.435.917-.1-.956,7.432-.918Z" transform="translate(-29.447 -201.29)"/>
        <path id="Path_174" data-name="Path 174" d="M41.869,230.926l-7.433.921-.1-.958,7.428-.915Z" transform="translate(-30.682 -211.669)"/>
        <path id="Path_178" data-name="Path 178" d="M110.516,250.757l-12.051,1.489-.1-.957,12.048-1.486Z" transform="translate(-84.1 -227.989)"/>
        <path id="Path_179" data-name="Path 179" d="M111.952,263.355,99.9,264.843l-.1-.956,12.051-1.486Z" transform="translate(-85.295 -238.358)"/>
        <path id="Path_189" data-name="Path 189" d="M211.951,199.414l-7.428.914-.109-.952,7.435-.918Z" transform="translate(-172.577 -185.73)"/>
        <path id="Path_190" data-name="Path 190" d="M213.412,212.018l-7.429.914-.107-.953,7.433-.917Z" transform="translate(-173.796 -196.104)"/>
        <path id="Path_191" data-name="Path 191" d="M299.075,204.366l-2.57.319-.3-2.742,2.573-.318Z" transform="translate(-249.158 -188.337)" stroke="#fff" stroke-miterlimit="10" stroke-width="0.3"/>
        <path id="Path_192" data-name="Path 192" d="M314.607,202.566l-2.576.314-.3-2.741,2.573-.319Z" transform="translate(-262.114 -186.851)" stroke="#fff" stroke-miterlimit="10" stroke-width="0.3"/>
        <path id="Path_193" data-name="Path 193" d="M329.813,200.813l-2.572.32-.3-2.747,2.569-.318Z" transform="translate(-274.803 -185.408)" stroke="#fff" stroke-miterlimit="10" stroke-width="0.3"/>
        <path id="Path_194" data-name="Path 194" d="M345.322,199.022l-2.572.319-.3-2.746,2.573-.317Z" transform="translate(-287.74 -183.936)" stroke="#fff" stroke-miterlimit="10" stroke-width="0.3"/>
        <path id="Path_195" data-name="Path 195" d="M283.548,206.162l-2.575.321-.3-2.748,2.573-.315Z" transform="translate(-236.201 -189.814)" stroke="#fff" stroke-miterlimit="10" stroke-width="0.3"/>
        <path id="Path_175" data-name="Path 175" d="M106.954,172.566l-2.574.319-.3-2.747,2.574-.318Z" transform="translate(-88.87 -162.161)" stroke="#fff" stroke-miterlimit="10" stroke-width="0.3"/>
        <path id="Path_176" data-name="Path 176" d="M122.485,170.779l-2.57.315-.3-2.745,2.57-.317Z" transform="translate(-101.831 -160.688)" stroke="#fff" stroke-miterlimit="10" stroke-width="0.3"/>
        <path id="Path_177" data-name="Path 177" d="M137.666,169.017l-2.569.316-.3-2.742,2.573-.32Z" transform="translate(-114.495 -159.238)" stroke="#fff" stroke-miterlimit="10" stroke-width="0.3"/>
        <path id="Path_180" data-name="Path 180" d="M153.2,167.216l-2.575.319-.3-2.747,2.574-.319Z" transform="translate(-127.452 -157.756)" stroke="#fff" stroke-miterlimit="10" stroke-width="0.3"/>
        <path id="Path_181" data-name="Path 181" d="M308.446,149.288l-2.574.317-.3-2.744,2.574-.318Z" transform="translate(-256.975 -143.003)" stroke="#fff" stroke-miterlimit="10" stroke-width="0.3"/>
        <path id="Path_182" data-name="Path 182" d="M323.626,147.53l-2.575.315-.3-2.743,2.574-.32Z" transform="translate(-269.635 -141.552)" stroke="#fff" stroke-miterlimit="10" stroke-width="0.3"/>
        <path id="Path_183" data-name="Path 183" d="M339.158,145.736l-2.57.32-.3-2.748,2.574-.317Z" transform="translate(-282.596 -140.078)" stroke="#fff" stroke-miterlimit="10" stroke-width="0.3"/>
        <path id="Path_184" data-name="Path 184" d="M297.346,190.874l-2.572.316-.3-2.743,2.573-.319Z" transform="translate(-247.715 -177.228)" stroke="#fff" stroke-miterlimit="10" stroke-width="0.3"/>
        <path id="Path_185" data-name="Path 185" d="M312.877,189.089l-2.574.319-.3-2.746,2.575-.315Z" transform="translate(-260.671 -175.761)" stroke="#fff" stroke-miterlimit="10" stroke-width="0.3"/>
        <path id="Path_186" data-name="Path 186" d="M328.06,187.325l-2.574.317-.3-2.745,2.578-.319Z" transform="translate(-273.336 -174.306)" stroke="#fff" stroke-miterlimit="10" stroke-width="0.3"/>
        <path id="Path_187" data-name="Path 187" d="M343.614,185.528l-2.572.32-.3-2.747,2.568-.317Z" transform="translate(-286.318 -172.83)" stroke="#fff" stroke-miterlimit="10" stroke-width="0.3"/>
        <path id="Path_188" data-name="Path 188" d="M281.809,192.673l-2.573.32-.3-2.743,2.575-.32Z" transform="translate(-234.749 -178.711)" stroke="#fff" stroke-miterlimit="10" stroke-width="0.3"/>
      </g>
    </g>
  </g>
</svg>
